<mxfile host="app.diagrams.net" modified="2022-07-22T15:20:48.483Z" agent="5.0 (Macintosh; Intel Mac OS X 10_15_7) AppleWebKit/537.36 (KHTML, like Gecko) Chrome/102.0.0.0 Safari/537.36" etag="ObFXz2kjAfBtHmM0lW9y" version="20.2.0" type="github">
  <diagram id="O6Ix9L_fdKyqDHlMqsE7" name="Page-1">
    <mxGraphModel dx="1234" dy="749" grid="1" gridSize="10" guides="1" tooltips="1" connect="1" arrows="1" fold="1" page="1" pageScale="1" pageWidth="850" pageHeight="550" math="0" shadow="0">
      <root>
        <mxCell id="0" />
        <mxCell id="1" parent="0" />
        <mxCell id="_LmJaqIPkXqoY1FvoVIZ-2" value="&lt;b&gt;&lt;font style=&quot;font-size: 18px;&quot;&gt;Government&lt;/font&gt;&lt;/b&gt;" style="rounded=1;whiteSpace=wrap;html=1;" vertex="1" parent="1">
          <mxGeometry x="181" y="23" width="290" height="60" as="geometry" />
        </mxCell>
        <mxCell id="_LmJaqIPkXqoY1FvoVIZ-4" value="Advantaged&lt;br&gt;Biased&lt;br&gt;People" style="shape=or;whiteSpace=wrap;html=1;" vertex="1" parent="1">
          <mxGeometry x="325" y="353" width="110" height="130" as="geometry" />
        </mxCell>
        <mxCell id="_LmJaqIPkXqoY1FvoVIZ-5" value="Dis-advantaged&lt;br&gt;Un-based&lt;br&gt;People" style="shape=or;whiteSpace=wrap;html=1;direction=west;" vertex="1" parent="1">
          <mxGeometry x="215" y="353" width="110" height="130" as="geometry" />
        </mxCell>
        <mxCell id="_LmJaqIPkXqoY1FvoVIZ-9" value="" style="shape=flexArrow;endArrow=classic;html=1;rounded=0;entryX=0;entryY=0.5;entryDx=0;entryDy=0;" edge="1" parent="1">
          <mxGeometry width="50" height="50" relative="1" as="geometry">
            <mxPoint x="325.5" y="353" as="sourcePoint" />
            <mxPoint x="325.5" y="253" as="targetPoint" />
          </mxGeometry>
        </mxCell>
        <mxCell id="_LmJaqIPkXqoY1FvoVIZ-11" value="&lt;br&gt;&lt;br&gt;&lt;br&gt;&lt;br&gt;&lt;br&gt;&lt;br&gt;&lt;br&gt;&lt;br&gt;Election" style="html=1;shadow=0;dashed=0;align=center;verticalAlign=middle;shape=mxgraph.arrows2.tailedArrow;dy1=5.5;dx1=26;notch=0;arrowHead=20;dx2=22.5;dy2=52.5;direction=north;" vertex="1" parent="1">
          <mxGeometry x="273.5" y="83" width="105" height="170" as="geometry" />
        </mxCell>
        <mxCell id="_LmJaqIPkXqoY1FvoVIZ-14" value="Bad&lt;br&gt;Nominations" style="rounded=1;whiteSpace=wrap;html=1;" vertex="1" parent="1">
          <mxGeometry x="371" y="283" width="120" height="40" as="geometry" />
        </mxCell>
        <mxCell id="_LmJaqIPkXqoY1FvoVIZ-15" value="" style="endArrow=classic;html=1;rounded=0;exitX=0.7;exitY=0.1;exitDx=0;exitDy=0;exitPerimeter=0;entryX=0.5;entryY=1;entryDx=0;entryDy=0;" edge="1" parent="1" source="_LmJaqIPkXqoY1FvoVIZ-4" target="_LmJaqIPkXqoY1FvoVIZ-14">
          <mxGeometry width="50" height="50" relative="1" as="geometry">
            <mxPoint x="471" y="473" as="sourcePoint" />
            <mxPoint x="521" y="423" as="targetPoint" />
          </mxGeometry>
        </mxCell>
        <mxCell id="_LmJaqIPkXqoY1FvoVIZ-16" value="" style="endArrow=classic;html=1;rounded=0;exitX=0.5;exitY=0;exitDx=0;exitDy=0;entryX=0;entryY=0;entryDx=22.5;entryDy=105;entryPerimeter=0;" edge="1" parent="1" source="_LmJaqIPkXqoY1FvoVIZ-14" target="_LmJaqIPkXqoY1FvoVIZ-11">
          <mxGeometry width="50" height="50" relative="1" as="geometry">
            <mxPoint x="421" y="283" as="sourcePoint" />
            <mxPoint x="381" y="243" as="targetPoint" />
            <Array as="points">
              <mxPoint x="431" y="231" />
            </Array>
          </mxGeometry>
        </mxCell>
        <mxCell id="_LmJaqIPkXqoY1FvoVIZ-17" value="&lt;font size=&quot;1&quot; style=&quot;&quot;&gt;&lt;b style=&quot;font-size: 15px;&quot;&gt;Media&lt;/b&gt;&lt;/font&gt;" style="rounded=1;whiteSpace=wrap;html=1;" vertex="1" parent="1">
          <mxGeometry x="31" y="193" width="120" height="60" as="geometry" />
        </mxCell>
        <mxCell id="_LmJaqIPkXqoY1FvoVIZ-18" value="" style="endArrow=classic;html=1;rounded=0;exitX=0.5;exitY=1;exitDx=0;exitDy=0;entryX=1;entryY=0.5;entryDx=0;entryDy=0;entryPerimeter=0;" edge="1" parent="1" source="_LmJaqIPkXqoY1FvoVIZ-17" target="_LmJaqIPkXqoY1FvoVIZ-5">
          <mxGeometry width="50" height="50" relative="1" as="geometry">
            <mxPoint x="51" y="433" as="sourcePoint" />
            <mxPoint x="101" y="383" as="targetPoint" />
            <Array as="points">
              <mxPoint x="91" y="418" />
            </Array>
          </mxGeometry>
        </mxCell>
        <mxCell id="_LmJaqIPkXqoY1FvoVIZ-33" value="&lt;ul style=&quot;font-size: 12px;&quot;&gt;&lt;li&gt;Hopes&lt;/li&gt;&lt;li&gt;Fake news&lt;/li&gt;&lt;li&gt;Ignore important facts&lt;/li&gt;&lt;li&gt;biasness&lt;/li&gt;&lt;li&gt;trend creation&lt;/li&gt;&lt;li&gt;opinion stamping&lt;/li&gt;&lt;/ul&gt;" style="edgeLabel;html=1;align=left;verticalAlign=middle;resizable=0;points=[];" vertex="1" connectable="0" parent="_LmJaqIPkXqoY1FvoVIZ-18">
          <mxGeometry x="-0.4256" y="1" relative="1" as="geometry">
            <mxPoint x="-61" y="-10" as="offset" />
          </mxGeometry>
        </mxCell>
        <mxCell id="_LmJaqIPkXqoY1FvoVIZ-19" value="" style="endArrow=classic;html=1;rounded=0;exitX=0;exitY=0.5;exitDx=0;exitDy=0;entryX=0.65;entryY=-0.008;entryDx=0;entryDy=0;entryPerimeter=0;" edge="1" parent="1" source="_LmJaqIPkXqoY1FvoVIZ-2" target="_LmJaqIPkXqoY1FvoVIZ-17">
          <mxGeometry width="50" height="50" relative="1" as="geometry">
            <mxPoint x="81" y="183" as="sourcePoint" />
            <mxPoint x="131" y="133" as="targetPoint" />
          </mxGeometry>
        </mxCell>
        <mxCell id="_LmJaqIPkXqoY1FvoVIZ-20" value="Opposition" style="ellipse;whiteSpace=wrap;html=1;" vertex="1" parent="1">
          <mxGeometry x="41" y="23" width="90" height="60" as="geometry" />
        </mxCell>
        <mxCell id="_LmJaqIPkXqoY1FvoVIZ-21" value="" style="endArrow=classic;html=1;rounded=0;exitX=0.5;exitY=1;exitDx=0;exitDy=0;entryX=0.45;entryY=0.025;entryDx=0;entryDy=0;entryPerimeter=0;" edge="1" parent="1" source="_LmJaqIPkXqoY1FvoVIZ-20" target="_LmJaqIPkXqoY1FvoVIZ-17">
          <mxGeometry width="50" height="50" relative="1" as="geometry">
            <mxPoint x="-19" y="203" as="sourcePoint" />
            <mxPoint x="31" y="153" as="targetPoint" />
          </mxGeometry>
        </mxCell>
        <mxCell id="_LmJaqIPkXqoY1FvoVIZ-22" value="Law and Order" style="rounded=1;whiteSpace=wrap;html=1;" vertex="1" parent="1">
          <mxGeometry x="511" y="193" width="120" height="60" as="geometry" />
        </mxCell>
        <mxCell id="_LmJaqIPkXqoY1FvoVIZ-23" value="Government&lt;br&gt;Institutes" style="rounded=1;whiteSpace=wrap;html=1;" vertex="1" parent="1">
          <mxGeometry x="681" y="193" width="120" height="60" as="geometry" />
        </mxCell>
        <mxCell id="_LmJaqIPkXqoY1FvoVIZ-24" value="" style="endArrow=classic;html=1;rounded=0;exitX=1;exitY=1;exitDx=0;exitDy=0;entryX=0.5;entryY=0;entryDx=0;entryDy=0;" edge="1" parent="1" source="_LmJaqIPkXqoY1FvoVIZ-2" target="_LmJaqIPkXqoY1FvoVIZ-22">
          <mxGeometry width="50" height="50" relative="1" as="geometry">
            <mxPoint x="523" y="73" as="sourcePoint" />
            <mxPoint x="451" y="212.51999999999998" as="targetPoint" />
          </mxGeometry>
        </mxCell>
        <mxCell id="_LmJaqIPkXqoY1FvoVIZ-25" value="* Delaying updates to law&lt;br&gt;&lt;div style=&quot;&quot;&gt;&lt;span style=&quot;background-color: initial;&quot;&gt;* Influence court decisions&lt;/span&gt;&lt;/div&gt;" style="text;html=1;strokeColor=none;fillColor=none;align=left;verticalAlign=middle;whiteSpace=wrap;rounded=0;" vertex="1" parent="1">
          <mxGeometry x="511" y="103" width="150" height="30" as="geometry" />
        </mxCell>
        <mxCell id="_LmJaqIPkXqoY1FvoVIZ-26" value="" style="endArrow=classic;html=1;rounded=0;exitX=1;exitY=0.5;exitDx=0;exitDy=0;entryX=0.5;entryY=0;entryDx=0;entryDy=0;" edge="1" parent="1" source="_LmJaqIPkXqoY1FvoVIZ-2" target="_LmJaqIPkXqoY1FvoVIZ-23">
          <mxGeometry width="50" height="50" relative="1" as="geometry">
            <mxPoint x="561" y="63" as="sourcePoint" />
            <mxPoint x="661" y="173" as="targetPoint" />
            <Array as="points">
              <mxPoint x="741" y="53" />
            </Array>
          </mxGeometry>
        </mxCell>
        <mxCell id="_LmJaqIPkXqoY1FvoVIZ-27" value="" style="endArrow=classic;html=1;rounded=0;exitX=0.5;exitY=1;exitDx=0;exitDy=0;entryX=1;entryY=0.5;entryDx=0;entryDy=0;entryPerimeter=0;" edge="1" parent="1" source="_LmJaqIPkXqoY1FvoVIZ-23" target="_LmJaqIPkXqoY1FvoVIZ-4">
          <mxGeometry width="50" height="50" relative="1" as="geometry">
            <mxPoint x="631" y="513" as="sourcePoint" />
            <mxPoint x="681" y="463" as="targetPoint" />
            <Array as="points">
              <mxPoint x="741" y="418" />
            </Array>
          </mxGeometry>
        </mxCell>
        <mxCell id="_LmJaqIPkXqoY1FvoVIZ-28" value="&lt;div style=&quot;font-size: 12px;&quot;&gt;&lt;ul&gt;&lt;li&gt;Jobs&lt;/li&gt;&lt;li&gt;Biased service&lt;/li&gt;&lt;/ul&gt;&lt;/div&gt;" style="edgeLabel;html=1;align=left;verticalAlign=middle;resizable=0;points=[];spacing=0;labelBorderColor=none;labelPosition=left;verticalLabelPosition=middle;" vertex="1" connectable="0" parent="_LmJaqIPkXqoY1FvoVIZ-27">
          <mxGeometry x="-0.0467" y="2" relative="1" as="geometry">
            <mxPoint x="-95" y="-2" as="offset" />
          </mxGeometry>
        </mxCell>
        <mxCell id="_LmJaqIPkXqoY1FvoVIZ-29" value="Supports bad&lt;br&gt;behavior" style="endArrow=classic;html=1;rounded=0;exitX=0.5;exitY=1;exitDx=0;exitDy=0;entryX=0.959;entryY=0.246;entryDx=0;entryDy=0;entryPerimeter=0;" edge="1" parent="1" source="_LmJaqIPkXqoY1FvoVIZ-22" target="_LmJaqIPkXqoY1FvoVIZ-4">
          <mxGeometry width="50" height="50" relative="1" as="geometry">
            <mxPoint x="531" y="253" as="sourcePoint" />
            <mxPoint x="631" y="363" as="targetPoint" />
            <Array as="points">
              <mxPoint x="560" y="340" />
            </Array>
          </mxGeometry>
        </mxCell>
        <mxCell id="_LmJaqIPkXqoY1FvoVIZ-30" value="Bad&lt;br&gt;Electors" style="text;html=1;strokeColor=none;fillColor=none;align=center;verticalAlign=middle;whiteSpace=wrap;rounded=0;labelBorderColor=none;dashed=1;dashPattern=1 1;" vertex="1" parent="1">
          <mxGeometry x="261" y="133" width="60" height="30" as="geometry" />
        </mxCell>
        <mxCell id="_LmJaqIPkXqoY1FvoVIZ-31" value="Trick&lt;br&gt;People" style="text;html=1;strokeColor=none;fillColor=none;align=center;verticalAlign=middle;whiteSpace=wrap;rounded=0;labelBorderColor=none;dashed=1;dashPattern=1 1;" vertex="1" parent="1">
          <mxGeometry x="81" y="103" width="60" height="30" as="geometry" />
        </mxCell>
        <mxCell id="_LmJaqIPkXqoY1FvoVIZ-32" value="Voting based on manipulated news and environment" style="text;html=1;strokeColor=none;fillColor=none;align=center;verticalAlign=middle;whiteSpace=wrap;rounded=0;labelBorderColor=none;dashed=1;dashPattern=1 1;" vertex="1" parent="1">
          <mxGeometry x="211" y="293" width="110" height="30" as="geometry" />
        </mxCell>
        <mxCell id="_LmJaqIPkXqoY1FvoVIZ-34" value="&lt;h1&gt;Current System&lt;/h1&gt;&lt;div&gt;Corrupted, deal-based, biased, bribery-driven system&lt;/div&gt;" style="text;html=1;strokeColor=none;fillColor=none;spacing=5;spacingTop=-20;whiteSpace=wrap;overflow=hidden;rounded=0;dashed=1;dashPattern=1 1;labelBorderColor=none;" vertex="1" parent="1">
          <mxGeometry x="16" y="433" width="190" height="80" as="geometry" />
        </mxCell>
      </root>
    </mxGraphModel>
  </diagram>
</mxfile>
